  <svg xmlns="http://www.w3.org/2000/svg" fill="none" viewBox="0 0 100 100"><path fill="#fff" fill-rule="evenodd" d="M87.428 20.408 55.85 1.664a11.88 11.88 0 0 0-12.125 0L12.141 20.408A12.6 12.6 0 0 0 6 31.258v37.488a12.6 12.6 0 0 0 6.087 10.85l31.578 18.743a11.88 11.88 0 0 0 12.125 0l31.584-18.743a12.6 12.6 0 0 0 6.088-10.85V31.258a12.6 12.6 0 0 0-6.032-10.85zm-24.46 58.537v2.688a1 1 0 0 1-.462.828l-1.6.916c-.25.131-.462 0-.462-.353v-2.647a5.2 5.2 0 0 1-3.638.353c-.193-.131-.268-.381-.175-.625l.572-2.438a1 1 0 0 1 .475-.64.34.34 0 0 1 .25 0c1.116.3 2.304.149 3.31-.419a4.4 4.4 0 0 0 2.468-3.781c0-1.369-.75-1.938-2.562-1.953-2.294 0-4.375-.438-4.469-3.825a9.8 9.8 0 0 1 3.706-7.5v-2.725a1.06 1.06 0 0 1 .463-.838l1.544-.981c.25-.131.462 0 .462.362v2.725a5.03 5.03 0 0 1 3.022-.362c.219.125.306.4.2.625l-.54 2.416a1.02 1.02 0 0 1-.432.609c-.062.037-.156.025-.231 0a4 4 0 0 0-2.91.475 3.66 3.66 0 0 0-2.206 3.24c0 1.235.65 1.61 2.835 1.657 2.922 0 4.178 1.322 4.212 4.256a10.46 10.46 0 0 1-3.837 7.906zm16.542-4.53a.63.63 0 0 1-.244.605l-7.953 4.85a.24.24 0 0 1-.272.022.23.23 0 0 1-.103-.25V77.58a.57.57 0 0 1 .362-.506l7.863-4.71a.24.24 0 0 1 .272-.022c.084.05.125.157.103.25v1.82zm5.515-46.1L55.144 46.77c-3.728 2.207-6.469 4.62-6.469 9.107v36.806c0 2.688 1.103 4.375 2.756 4.938q-.82.153-1.656.165a9.8 9.8 0 0 1-4.984-1.378l-31.578-18.74a10.31 10.31 0 0 1-5.007-8.916V31.258a10.33 10.33 0 0 1 5.007-8.931L44.79 3.583a9.74 9.74 0 0 1 9.925 0l31.578 18.744a10.33 10.33 0 0 1 4.85 7.187c-1.025-2.228-3.384-2.812-6.131-1.234h.01z" clip-rule="evenodd"/></svg>