<svg xmlns="http://www.w3.org/2000/svg" fill="none" viewBox="0 0 100 100"><path fill="#0AE448" d="M50.21 44.196a.56.56 0 0 0 .169-.383h.002c.07-2.76-.569-4.916-1.897-6.408-1.403-1.576-3.552-2.385-6.387-2.405-2.83 0-5.269.884-7.052 2.557-1.686 1.584-2.637 3.775-2.68 6.171-.072 4.132 2.262 6.76 4.865 9.302 2.015 2.074 2.385 3.099 2.365 4.268-.025 1.353-.669 2.13-1.768 2.13-.453 0-.817-.141-1.078-.418-.408-.428-.588-1.201-.522-2.236a.5.5 0 0 0-.108-.392.56.56 0 0 0-.43-.212h-5.95a.557.557 0 0 0-.559.54c-.14 2.87.529 5.093 1.987 6.608 1.436 1.491 3.596 2.247 6.423 2.247 5.537 0 9.175-3.459 9.27-8.81.058-3.309-1.15-5.812-4.162-8.638-2.288-2.22-3.092-3.511-3.067-4.933.023-1.274.789-2.004 1.977-2.004s1.769.817 1.769 2.495a.69.69 0 0 0 .691.678h5.753a.56.56 0 0 0 .388-.157"/><path fill="#0AE448" d="M32.259 49.29v-.014h-.003c.005-.277-.188-.53-.46-.567q-.037-.006-.074-.005H21.197v.013c-.272.032-.493.217-.547.46l-1.096 4.762a.43.43 0 0 0 .089.369.6.6 0 0 0 .446.206h1.604c.092 0 .213.013.257.07.042.055.039.178-.005.337-.312 1.145-1.053 2.399-1.974 3.124-.922.724-2.445 1.158-3.511.505-1.203-.74-1.407-2.521-1.457-3.789-.105-2.722.428-5.456 1.474-7.972.749-1.801 2.161-5.051 4.555-5.051 1.357 0 2.04 1.12 2.091 3.423a.43.43 0 0 0 .415.417h6.245a.56.56 0 0 0 .56-.546c-.005-3.33-.765-5.872-2.262-7.561-1.416-1.597-3.452-2.397-6.045-2.374-8.524 0-12.95 8.612-13.888 17.147-.52 4.546.338 8.32 2.415 10.624 1.57 1.744 3.423 2.628 6.17 2.628 3.057 0 5.346-.679 7.202-2.134 2.182-1.708 3.835-4.554 5.056-8.694a.22.22 0 0 1 .211-.16h1.324c.31 0 .579-.196.638-.465z"/><path fill="#0AE448" fill-rule="evenodd" d="m68.209 64.558.037-28.459a.535.535 0 0 0-.539-.543h-8.902c-.3 0-.431.258-.517.428l-12.89 28.4v.005l-.005.008c-.143.349.128.723.506.723h6.223q.505.002.669-.314l1.235-2.97c.152-.396.18-.433.613-.433h5.946c.413 0 .422.008.415.413l-.133 2.76a.54.54 0 0 0 .33.503.5.5 0 0 0 .208.04h6.287a.53.53 0 0 0 .41-.185.47.47 0 0 0 .107-.376m-11.014-9.501q-.07 0-.14-.005a.15.15 0 0 1-.126-.09.15.15 0 0 1-.007-.098 3 3 0 0 1 .055-.165l4.458-11.032a3 3 0 0 1 .139-.319c.072-.148.16-.159.187-.048.024.091-.511 11.327-.511 11.327-.042.42-.061.438-.476.473l-3.575-.041h-.008zm18.97-19.501h4.726l.005-.003c6.971 0 10.451 3.16 10.341 9.395-.128 7.306-4.58 12.675-11.284 13.913-.953.175-1.922.244-2.89.239l-3.237-.015a.204.204 0 0 0-.203.198.19.19 0 0 0 .105.173l.394.205 1.019.532 1.024.533.318.165c.226.118.313.314.263.566l-.718 3.237c-.059.27-.276.426-.594.426h-5.907a.58.58 0 0 1-.445-.206.43.43 0 0 1-.09-.37l6.578-28.558c.065-.297.345-.43.595-.43m2.991 16.995h.126c3.103-.126 4.794-3.792 4.856-7.348.036-2.055-.714-3.259-2.059-3.3h-4.32a.2.2 0 0 0-.175.299.2.2 0 0 0 .076.072s2.733 1.441 2.92 1.545c.147.08.15.217.101.454 0 .006-.418 1.844-.859 3.782-.492 2.163-1.01 4.451-1.008 4.455.008.01.058.04.342.04" clip-rule="evenodd"/></svg>