<svg xmlns="http://www.w3.org/2000/svg" fill="none" viewBox="0 0 100 100"><path fill="#800" d="M97.733 46.548a4.2 4.2 0 0 0-.352-1.431 3.3 3.3 0 0 0-.778-1.155 3.3 3.3 0 0 0-1.155-.778q-.652-.301-1.456-.301-.83 0-1.507.3a3.3 3.3 0 0 0-1.13.779q-.476.502-.752 1.18a4.3 4.3 0 0 0-.327 1.406zm2.058 3.615q-.426 2.184-1.883 3.29-1.455 1.104-3.665 1.104-1.557 0-2.712-.502a5.35 5.35 0 0 1-1.908-1.406q-.778-.904-1.18-2.16a10.8 10.8 0 0 1-.426-2.736q0-1.48.452-2.711.451-1.23 1.255-2.134a5.9 5.9 0 0 1 1.933-1.406 6 6 0 0 1 2.46-.503q1.733 0 2.862.729a5.4 5.4 0 0 1 1.833 1.807q.704 1.105.954 2.41.277 1.306.226 2.486h-9.716q-.025.854.201 1.632.225.753.728 1.356.503.577 1.28.928.78.352 1.833.352 1.355 0 2.21-.628.878-.627 1.154-1.908z"/><path fill="#800" d="M79.88 50.188q.025.703.326 1.206.301.477.778.778a4 4 0 0 0 1.105.402q.627.125 1.28.125.503 0 1.055-.075.552-.076 1.004-.277a1.94 1.94 0 0 0 .779-.577q.3-.402.3-1.004 0-.828-.627-1.255-.627-.428-1.582-.678a19 19 0 0 0-2.033-.477 12.3 12.3 0 0 1-2.059-.603 4.4 4.4 0 0 1-1.556-1.105q-.628-.702-.628-1.958 0-.979.427-1.682a3.64 3.64 0 0 1 1.13-1.13 5 5 0 0 1 1.556-.653A7 7 0 0 1 82.867 41q1.106 0 2.034.201a4.3 4.3 0 0 1 1.632.653q.728.452 1.155 1.255.427.78.502 1.959h-2.134q-.05-.628-.326-1.03a2.1 2.1 0 0 0-.704-.678 3 3 0 0 0-.953-.351 4.2 4.2 0 0 0-1.03-.126q-.477 0-.979.076-.476.075-.879.276a1.63 1.63 0 0 0-.653.502q-.25.301-.25.803 0 .553.376.93.402.351 1.004.602.603.226 1.356.402.753.15 1.506.326.804.176 1.557.427.778.25 1.356.678.602.4.954 1.03.376.627.376 1.556 0 1.18-.502 1.958a3.7 3.7 0 0 1-1.28 1.255 5 5 0 0 1-1.783.653q-.979.2-1.958.2-1.08 0-2.059-.225a5.2 5.2 0 0 1-1.732-.728 3.9 3.9 0 0 1-1.205-1.356q-.452-.853-.502-2.059z"/><path fill="#800" d="M68.122 47.803q0 1.18.301 2.11.326.903.879 1.53.552.603 1.28.93.754.326 1.582.326t1.556-.326a3.8 3.8 0 0 0 1.306-.93q.552-.627.854-1.53.326-.93.326-2.11t-.326-2.084q-.302-.929-.854-1.556a3.66 3.66 0 0 0-1.305-.954 3.8 3.8 0 0 0-1.557-.327q-.829 0-1.582.327a3.7 3.7 0 0 0-1.28.954q-.552.627-.879 1.556-.3.905-.301 2.084m-2.26 0q0-1.43.402-2.661a5.9 5.9 0 0 1 1.205-2.16 5.6 5.6 0 0 1 1.984-1.455q1.18-.528 2.71-.528 1.558 0 2.712.528a5.6 5.6 0 0 1 1.984 1.456 5.9 5.9 0 0 1 1.205 2.159q.402 1.23.402 2.661 0 1.43-.402 2.662-.402 1.23-1.205 2.159a5.75 5.75 0 0 1-1.984 1.43q-1.154.503-2.711.503-1.532 0-2.712-.502a5.75 5.75 0 0 1-1.983-1.431 6.2 6.2 0 0 1-1.205-2.16 8.5 8.5 0 0 1-.402-2.66"/><path fill="#800" d="M56.113 47.803q0 1.18.302 2.11.326.903.878 1.53a3.9 3.9 0 0 0 1.28.93q.754.326 1.582.326.83 0 1.557-.326a3.8 3.8 0 0 0 1.305-.93q.553-.627.854-1.53.327-.93.327-2.11t-.327-2.084q-.3-.929-.854-1.556a3.66 3.66 0 0 0-1.305-.954 3.8 3.8 0 0 0-1.557-.327q-.829 0-1.581.327a3.7 3.7 0 0 0-1.28.954q-.553.627-.88 1.556-.3.905-.3 2.084m-2.26 0q0-1.43.402-2.661a5.9 5.9 0 0 1 1.206-2.16 5.6 5.6 0 0 1 1.983-1.455q1.18-.528 2.711-.528 1.557 0 2.712.528a5.6 5.6 0 0 1 1.983 1.456 5.9 5.9 0 0 1 1.205 2.159q.402 1.23.402 2.661 0 1.43-.402 2.662-.402 1.23-1.205 2.159a5.75 5.75 0 0 1-1.983 1.43q-1.155.503-2.712.503-1.53 0-2.711-.502a5.75 5.75 0 0 1-1.983-1.431 6.2 6.2 0 0 1-1.206-2.16 8.5 8.5 0 0 1-.401-2.66m-.11 5.372q0 3.189-1.456 4.77-1.456 1.582-4.57 1.582a9 9 0 0 1-1.857-.201 5.8 5.8 0 0 1-1.708-.653 4 4 0 0 1-1.255-1.18q-.503-.728-.552-1.782h2.134q.026.577.351.979.351.401.829.653.501.25 1.08.351.576.126 1.104.126 1.055 0 1.782-.377a3.2 3.2 0 0 0 1.206-1.004q.477-.629.678-1.532.225-.903.225-1.983v-.854h-.05q-.552 1.206-1.682 1.783a5.2 5.2 0 0 1-2.36.552q-1.456 0-2.536-.527a5.4 5.4 0 0 1-1.807-1.406 6.4 6.4 0 0 1-1.105-2.084 9 9 0 0 1-.351-2.536q0-1.154.3-2.36.302-1.23 1.005-2.209a5.3 5.3 0 0 1 1.858-1.632Q46.163 41 47.845 41q1.23 0 2.26.553 1.029.527 1.606 1.607h.025V41.3h2.009zm-5.975-.628q1.055 0 1.782-.427a3.6 3.6 0 0 0 1.205-1.154q.453-.729.653-1.632a7.4 7.4 0 0 0 .226-1.808q0-.854-.2-1.682a4.4 4.4 0 0 0-.654-1.481 3.2 3.2 0 0 0-1.13-1.08q-.702-.401-1.707-.401-1.03 0-1.757.401a3.4 3.4 0 0 0-1.205 1.03 4.8 4.8 0 0 0-.678 1.506q-.2.853-.2 1.782 0 .879.175 1.758.176.878.602 1.607.428.702 1.13 1.154.703.427 1.758.427M31.005 41.3h2.008v2.06h.05Q34.395 41 37.281 41q1.28 0 2.134.351.855.35 1.381.98.527.627.728 1.505.225.855.226 1.909v8.536h-2.134v-8.788q0-1.204-.703-1.908-.703-.703-1.933-.703-.98 0-1.707.302a3.2 3.2 0 0 0-1.18.853 3.8 3.8 0 0 0-.728 1.306 5.4 5.4 0 0 0-.226 1.607v7.33h-2.134zm-10.452 6.503q0 1.18.301 2.11a4.7 4.7 0 0 0 .879 1.53 3.9 3.9 0 0 0 1.28.93q.754.326 1.582.326t1.557-.326a3.8 3.8 0 0 0 1.305-.93q.552-.627.854-1.53.326-.93.326-2.11t-.326-2.084q-.302-.929-.854-1.556a3.66 3.66 0 0 0-1.305-.954 3.8 3.8 0 0 0-1.557-.327q-.828 0-1.582.327a3.7 3.7 0 0 0-1.28.954q-.552.627-.879 1.556-.3.905-.301 2.084m-2.26 0q0-1.43.402-2.661a5.9 5.9 0 0 1 1.205-2.16 5.6 5.6 0 0 1 1.984-1.455q1.18-.528 2.711-.528 1.557 0 2.711.528a5.6 5.6 0 0 1 1.984 1.456 5.9 5.9 0 0 1 1.205 2.159q.402 1.23.402 2.661 0 1.43-.402 2.662-.402 1.23-1.205 2.159a5.75 5.75 0 0 1-1.984 1.43q-1.154.503-2.711.503-1.532 0-2.711-.502a5.75 5.75 0 0 1-1.984-1.431 6.2 6.2 0 0 1-1.205-2.16 8.5 8.5 0 0 1-.402-2.66M0 41.3h2.008v1.909h.05q1.458-2.21 4.193-2.21 1.206 0 2.185.503.979.502 1.38 1.707a4.56 4.56 0 0 1 1.708-1.632 4.9 4.9 0 0 1 2.36-.578 6.3 6.3 0 0 1 1.757.226q.804.201 1.356.653.578.452.879 1.18.326.703.326 1.707v9.516h-2.134V45.77q0-.603-.1-1.13a2.2 2.2 0 0 0-.377-.904 1.83 1.83 0 0 0-.778-.628q-.477-.225-1.256-.225-1.582 0-2.485.903-.904.904-.904 2.41v8.085H8.034V45.77q0-.629-.126-1.155a2.2 2.2 0 0 0-.376-.904 1.7 1.7 0 0 0-.753-.603q-.453-.225-1.18-.225-.93 0-1.607.376a3.8 3.8 0 0 0-1.08.904q-.4.527-.602 1.105-.176.552-.176.928v8.085H0z"/></svg>