<svg xmlns="http://www.w3.org/2000/svg" fill="none" viewBox="0 0 100 100"><g clip-path="url(#a)"><path fill="#fff" d="M8.033 4.314 63.487.227c6.81-.583 8.56-.19 12.84 2.917L94.03 15.587c2.923 2.14 3.897 2.724 3.897 5.054v68.243c0 4.277-1.56 6.807-7.007 7.193l-64.397 3.89c-4.093.194-6.036-.39-8.18-3.113L5.31 79.941C2.967 76.827 2 74.497 2 71.774v-60.66c0-3.497 1.56-6.413 6.033-6.8"/><path fill="#000" fill-rule="evenodd" d="M63.49.227 8.027 4.314C3.56 4.701 2 7.617 2 11.114v60.66c0 2.723.97 5.053 3.307 8.167l13.036 16.913c2.143 2.723 4.087 3.307 8.177 3.113l64.403-3.89c5.447-.386 7.007-2.916 7.007-7.193V20.641c0-2.21-.877-2.847-3.457-4.734l-.44-.32-17.7-12.443C72.05.037 70.3-.356 63.487.227zM27.977 19.524c-5.257.353-6.454.433-9.437-1.99l-7.59-6.027c-.777-.78-.387-1.753 1.557-1.946l53.316-3.887c4.474-.39 6.81 1.167 8.56 2.527l9.147 6.61c.39.196 1.36 1.36.193 1.36l-55.066 3.306zm-6.13 68.777V30.367c0-2.53.78-3.696 3.113-3.893l63.236-3.693c2.144-.194 3.117 1.166 3.117 3.693v57.547c0 2.53-.39 4.67-3.893 4.863l-60.513 3.5c-3.5.193-5.06-.97-5.06-4.083m59.74-54.827c.386 1.75 0 3.5-1.757 3.7l-2.913.577v42.773c-2.534 1.36-4.867 2.137-6.814 2.137-3.113 0-3.893-.974-6.226-3.887l-19.07-29.94v28.967l6.033 1.363s0 3.5-4.867 3.5l-13.423.777c-.39-.78 0-2.724 1.36-3.11l3.503-.97v-38.3l-4.863-.394c-.39-1.75.58-4.276 3.307-4.47l14.4-.973 19.846 30.333V38.724l-5.06-.58c-.387-2.143 1.167-3.697 3.113-3.89z" clip-rule="evenodd"/></g><defs><clipPath id="a"><path fill="#fff" d="M2 0h96.667v100H2z"/></clipPath></defs></svg>