<svg xmlns="http://www.w3.org/2000/svg" fill="none" viewBox="0 0 103 104"><path fill="#019833" stroke="#000" stroke-width=".267" d="M52.318 6.19 6.52 52.05l45.607 45.67 45.798-45.86z"/><path fill="#66FE98" stroke="#000" stroke-width=".267" d="M52.127 6.382V2.369L2.322 52.24H6.52z"/><path fill="#45FE02" stroke="#000" stroke-width=".267" d="M52.013 6.382V2.369l49.805 49.872H97.62z"/><path fill="#017D17" stroke="#000" stroke-width=".267" d="M52.127 97.986V102L2.322 52.127H6.52z"/><path stroke="#000" stroke-width="5.347" d="M11.561 7.434h32.115l1.956 1.959v6.013l-1.552 1.891h-3.508v29.86l30.225-29.86h-4.992l-1.754-1.891v-6.35l1.619-1.487h32.519l1.62 1.621v5.945l-73.54 75.53h-8.366l-2.421-1.4V17.027h-4.056l-1.484-1.486V9.19z"/><path fill="#005D04" stroke="#000" stroke-width=".267" d="M52.013 97.986V102l49.805-49.872H97.62z"/><path stroke="#000" stroke-width="1.604" d="M51.993 1.999 2 52.059l49.785 49.851 49.992-50.06z"/><path fill="#FEFEFE" stroke="#000" stroke-width=".267" d="m44.017 10.49 1.813-.956-1.86-1.863H11.576L9.93 9.32v6.234l1.825 1.828.87-1.828-1.145-1.146v-4.395l.86-.764h30.913z"/><path stroke="#000" stroke-width=".267" d="m66.919 9.055-1.144 1.146v4.205l1.002 1.003h5.293v4.063L37.056 55.009V15.46h5.819l1.193-1.195v-4.256l-1.102-.852H12.344l-1.002 1.003v4.347l1.018 1.02h5.327v72.83l1.002 1.004h6.052l73.376-75.815V10.2l-1.144-1.146z"/><path fill="#FEFEFE" stroke="#000" stroke-width=".267" d="M17.634 15.406v72.962l.944 1.08-.74 1.414-2.094-2.089V17.297z"/><path fill="gray" stroke="#000" stroke-width=".267" d="m12.4 15.406-.54 1.756h3.914l2.159-1.756z"/><path fill="#FEFEFE" d="m66.153 17.378.859-1.767-1.24-1.147v-3.917l1.43-1.433h29.865l1.145 1.529 1.622-1.147-1.67-1.672H66.058l-1.599 1.6v6.282l1.658 1.565M40.171 47.434l-3.119 7.578 35.207-35.35v-4.204z"/><path stroke="#000" stroke-width=".267" d="m66.153 17.378.859-1.767-1.24-1.147v-3.917l1.43-1.433h29.865l1.145 1.529 1.622-1.147-1.67-1.672H66.058l-1.599 1.6v6.282l1.658 1.565M40.171 47.434l-3.119 7.578 35.207-35.35v-4.204z"/><path fill="gray" stroke="#000" stroke-width=".267" d="m43.946 10.271 1.551-1.013v6.148l-1.788 1.79h-3.474v30.3l-3.171 7.498V15.406h5.802l1.08-.879z"/><path fill="#CCC" stroke="#000" stroke-width=".267" d="m66.919 9.055-1.144 1.146v4.205l1.002 1.003h5.293v4.063L37.056 55.009V15.46h5.819l1.193-1.195v-4.256l-1.102-.852H12.344l-1.002 1.003v4.347l1.018 1.02h5.327v72.83l1.002 1.004h6.052l73.376-75.815V10.2l-1.144-1.146z"/><path fill="gray" stroke="#000" stroke-width=".267" d="m98.212 10.299 1.63-.942v5.91L25.925 90.899h-7.848l.75-1.492h6.011l73.277-75.764zm-26.099 5.208L70.46 17.23h-4.318l1.012-1.723z"/><path fill="#CCC" stroke="#000" stroke-miterlimit="10" stroke-width="2.139" d="M54.487 58.148a.33.33 0 0 0-.15.075l-1.42 1.221a.33.33 0 0 0-.091.142l-1.42 3.98a.33.33 0 0 0 .076.342l1.085 1.087c.063.06.147.093.234.092h4.383a.33.33 0 0 0 .234-.092l1.144-1.154a.33.33 0 0 0 .083-.142l1.219-4.188a.33.33 0 0 0-.084-.326l-.943-.945a.33.33 0 0 0-.234-.092h-4.049a.3.3 0 0 0-.067 0Zm-8.031 11.22a.33.33 0 0 0-.25.242l-.543 2.156a.33.33 0 0 0 .317.41h2.58l-6.395 18.283a.33.33 0 0 0 .309.435h9.308a.33.33 0 0 0 .318-.226l.61-1.965a.33.33 0 0 0-.318-.426h-2.104l6.328-18.475a.33.33 0 0 0-.309-.435h-9.784a.3.3 0 0 0-.067 0Zm29.62.066a.33.33 0 0 0-.183.109l-1.937 2.19h-3.08L68.822 69.6a.33.33 0 0 0-.234-.1h-7.355a.33.33 0 0 0-.309.217l-.676 2.023a.33.33 0 0 0 .309.435h1.97L56.4 90.258a.33.33 0 0 0 .31.435h7.83a.33.33 0 0 0 .309-.217l.601-1.764a.33.33 0 0 0-.309-.435h-1.369l3.907-12.314h7.071l-4.458 14.304a.33.33 0 0 0 .318.426h7.555a.33.33 0 0 0 .3-.2l.677-1.622a.33.33 0 0 0-.3-.452h-1.37l3.974-12.523h6.729l-4.525 14.37a.33.33 0 0 0 .168.392.3.3 0 0 0 .15.035h8.298a.33.33 0 0 0 .309-.209l.676-1.764a.33.33 0 0 0-.157-.406.3.3 0 0 0-.152-.037h-1.645l5.001-16.26a.33.33 0 0 0-.05-.3l-1.553-2.09a.33.33 0 0 0-.267-.126h-5.936a.33.33 0 0 0-.242.1l-1.87 2.057h-3.273l-1.936-2.124a.33.33 0 0 0-.243-.1h-4.783a.3.3 0 0 0-.067 0Z"/><path fill="#CCC" stroke="#000" stroke-miterlimit="10" stroke-width=".267" d="m54.554 58.474-1.42 1.22-1.419 3.98 1.086 1.087h4.383l1.144-1.154 1.218-4.188-.943-.945zm-8.031 11.219-.543 2.157h3.039l-6.545 18.718h9.308l.61-1.965h-2.563l6.478-18.91zm29.62.067-2.028 2.299h-3.373l-2.154-2.232h-7.355l-.676 2.023h2.43l-6.279 18.517h7.831l.601-1.764h-1.82l4.116-12.966H75.2l-4.592 14.73h7.556l.676-1.622h-1.82l4.183-13.175h7.422l-4.659 14.797h8.299l.676-1.764h-2.096l5.135-16.686-1.553-2.09h-5.936l-1.962 2.157h-3.573l-2.029-2.224z"/></svg>