<svg xmlns="http://www.w3.org/2000/svg" fill="none" viewBox="0 0 100 100"><path fill="#2489CA" d="M.951 35.498s-2.435-1.755.488-4.1l6.81-6.089s1.948-2.05 4.008-.264l62.839 47.576v22.814s-.03 3.582-4.628 3.187z"/><path fill="#1070B3" d="M17.148 50.204.951 64.929s-1.664 1.238 0 3.45l7.52 6.84s1.787 1.919 4.425-.263l17.171-13.02z"/><path fill="#0877B9" d="M45.584 50.325 75.29 27.643l-.193-22.692S73.827 0 69.596 2.577L30.067 38.553z"/><path fill="#3C99D4" d="M70.468 98.652c1.726 1.766 3.816 1.188 3.816 1.188l23.149-11.407c2.963-2.02 2.547-4.526 2.547-4.526V15.79c0-2.994-3.065-4.029-3.065-4.029L76.852 2.09c-4.384-2.71-7.256.487-7.256.487s3.694-2.659 5.5 2.375v90.067c0 .62-.132 1.228-.396 1.776-.528 1.066-1.674 2.06-4.425 1.644z"/></svg>