<?xml version="1.0" encoding="utf-8"?>
<svg version="1.1" id="Layer_1" xmlns="http://www.w3.org/2000/svg" x="0px" y="0px" width="1026px" viewBox="0 0 1026 1026" enable-background="new 0 0 1026 1026" xmlns:bx="https://boxy-svg.com" height="1026px"><defs><bx:export><bx:file format="svg"/></bx:export></defs><g style="" transform="matrix(1.145762, 0, 0, 1.144697, -140.802567, -8.137771)"><path fill="#e0def4" opacity="1.000000" stroke="none" d="M 581.236 86.95 C 598.566 88.812 615.523 89.628 632.192 92.264 C 643.114 93.991 653.653 98.241 664.3 101.563 C 675.325 105.002 686.455 108.217 697.195 112.412 C 705.318 115.585 712.885 120.174 720.726 124.08 C 725.664 126.541 730.87 128.541 735.571 131.384 C 747.865 138.818 760.355 146.034 772.011 154.391 C 786.5 164.78 800.941 175.448 814.075 187.449 C 825.901 198.256 836.258 210.752 846.651 223.022 C 854.005 231.705 861.004 240.842 866.969 250.512 C 875.292 264.009 882.975 277.957 890.041 292.155 C 895.912 303.95 900.323 316.462 905.694 328.517 C 912.879 344.643 915.886 361.875 920.127 378.84 C 924.72 397.213 925.727 415.85 926.965 434.515 C 927.786 446.886 928.774 459.367 928.001 471.692 C 926.948 488.481 924.613 505.216 922.197 521.883 C 920.641 532.626 918.598 543.39 915.615 553.814 C 911.664 567.621 907.255 581.382 901.801 594.654 C 895.965 608.858 889.013 622.639 881.925 636.282 C 877.1 645.572 871.521 654.517 865.697 663.227 C 860.245 671.38 854.157 679.122 848.108 686.856 C 842.806 693.636 837.274 700.245 831.638 706.752 C 828.641 710.213 825.252 713.343 821.961 716.542 C 818.177 720.22 814.368 723.877 810.457 727.419 C 806.168 731.304 801.837 735.153 797.368 738.827 C 791.776 743.424 786.161 748.012 780.312 752.27 C 770.734 759.242 761.166 766.268 751.193 772.644 C 744.653 776.825 737.48 780.05 730.461 783.437 C 718.337 789.287 706.17 795.059 693.893 800.578 C 690.284 802.201 686.23 802.822 682.4 803.971 C 672.19 807.033 662.091 810.539 651.759 813.107 C 640.275 815.961 628.507 817.66 616.995 820.414 C 587.624 827.439 557.836 822.934 528.261 823.607 C 517.545 823.852 506.739 820.284 495.979 818.429 C 490.679 817.515 485.277 816.944 480.118 815.509 C 468.284 812.216 456.57 808.487 443.387 804.507 C 447.751 802.081 450.55 800.358 453.49 798.921 C 463.38 794.087 473.445 789.597 483.209 784.523 C 495.082 778.353 506.937 772.09 518.391 765.188 C 529.323 758.6 540.106 751.638 550.268 743.935 C 562.571 734.609 574.587 724.8 585.909 714.316 C 594.717 706.159 602.374 696.739 610.352 687.711 C 617.26 679.893 624.123 672.013 630.572 663.819 C 634.234 659.166 637.178 653.917 640.177 648.779 C 647.021 637.053 654.176 625.471 660.281 613.365 C 664.519 604.961 667.469 595.867 670.545 586.927 C 674.722 574.787 678.864 562.608 682.258 550.237 C 684.433 542.31 685.269 534.011 686.638 525.868 C 687.88 518.48 689.178 511.096 690.179 503.674 C 691.163 496.373 692.351 489.035 692.488 481.696 C 692.821 463.855 693.032 445.99 692.444 428.163 C 692.042 415.963 690.707 403.735 688.88 391.657 C 687.171 380.36 684.479 369.193 681.813 358.066 C 679.778 349.566 677.619 341.03 674.6 332.848 C 670.086 320.618 665.356 308.396 659.624 296.707 C 653.977 285.19 647.182 274.21 640.486 263.241 C 635.24 254.646 630.233 245.666 623.602 238.205 C 610.863 223.872 597.259 210.28 583.597 196.803 C 575.919 189.229 567.619 182.234 559.203 175.472 C 552.264 169.896 544.874 164.846 537.45 159.916 C 523.948 150.951 510.571 141.735 496.574 133.601 C 485.748 127.31 474.051 122.521 462.75 117.045 C 458.671 115.068 454.543 113.17 450.6 110.947 C 449.47 110.31 448.909 108.663 447.61 106.791 C 462.712 102.486 476.85 98.17 491.149 94.482 C 500.732 92.01 510.466 89.456 520.271 88.657 C 538.836 87.146 557.501 86.852 576.126 86.115 C 577.654 86.055 579.202 86.478 581.236 86.95 M 664.495 771.56 C 672.565 768.256 680.794 765.288 688.662 761.557 C 697.458 757.386 705.924 752.521 714.535 747.959 C 721.285 744.382 728.091 740.907 734.767 737.197 C 739.636 734.492 744.64 731.881 749.037 728.513 C 756.688 722.654 763.916 716.243 771.321 710.063 C 778.528 704.05 786.363 698.637 792.792 691.884 C 802.046 682.164 810.439 671.601 818.895 661.151 C 825.285 653.254 831.327 645.065 837.281 636.83 C 841.546 630.931 846.017 625.051 849.314 618.609 C 855.051 607.4 860.279 595.9 865.112 584.269 C 870.154 572.135 875.174 559.909 878.9 547.337 C 882.037 536.756 883.891 525.693 885.265 514.712 C 887.365 497.928 889.013 481.055 889.971 464.17 C 890.526 454.401 889.43 444.53 888.94 434.712 C 888.149 418.855 888.499 402.946 883.131 387.527 C 879.835 378.059 878.543 367.912 875.749 358.244 C 873.01 348.77 869.507 339.518 866.343 330.168 C 865.55 327.823 865.043 325.335 863.934 323.152 C 859.77 314.949 855.416 306.842 851.122 298.705 C 849.802 296.204 848.565 293.651 847.086 291.246 C 844.056 286.318 840.973 281.418 837.76 276.606 C 831.511 267.247 825.988 257.237 818.658 248.806 C 807.219 235.651 794.529 223.585 782.362 211.065 C 780.539 209.189 778.841 207.141 776.797 205.541 C 772.688 202.323 768.315 199.443 764.17 196.27 C 756.17 190.148 748.631 183.335 740.209 177.875 C 728.797 170.477 716.996 163.567 704.875 157.407 C 693.518 151.636 681.604 146.92 669.781 142.12 C 663.115 139.414 656.221 137.17 649.279 135.267 C 640.488 132.856 631.593 130.751 622.649 128.995 C 616.401 127.768 610.013 127.11 603.655 126.61 C 587.548 125.342 571.422 124.307 555.304 123.178 C 555.23 123.724 555.155 124.269 555.081 124.814 C 555.652 125.152 556.257 125.442 556.788 125.834 C 571.833 136.943 587.488 147.237 600.992 160.363 C 610.262 169.375 620.156 177.742 629.507 186.675 C 634.62 191.56 639.446 196.807 643.919 202.285 C 648.176 207.498 651.878 213.175 655.696 218.736 C 665.19 232.567 675.306 246.037 683.833 260.444 C 690.302 271.373 694.942 283.422 699.966 295.157 C 704.082 304.773 707.868 314.558 711.229 324.462 C 713.712 331.775 715.377 339.376 717.222 346.894 C 720.219 359.112 724.111 371.229 725.731 383.636 C 728.223 402.732 730.051 422.02 730.421 441.259 C 730.802 461.068 728.901 480.912 728.377 500.751 C 728.054 513.02 725.356 524.765 722.792 536.684 C 720.168 548.887 718.666 561.22 714.232 573.099 C 709.788 585.001 707.647 597.774 703.065 609.61 C 698.332 621.836 692.151 633.537 686.083 645.197 C 681.429 654.141 676.203 662.814 670.813 671.343 C 660.254 688.052 648.506 703.886 634.761 718.157 C 632.535 720.469 630.201 722.676 627.946 724.959 C 621.592 731.389 615.239 737.821 608.914 744.279 C 606.641 746.599 604.681 749.289 602.167 751.295 C 597.336 755.149 592.178 758.589 587.217 762.284 C 577.754 769.333 568.32 776.421 558.916 783.549 C 557.85 784.357 557.054 785.523 556.134 786.523 C 556.335 787.02 556.536 787.518 556.737 788.015 C 572.752 786.891 588.833 786.335 604.76 784.468 C 617.862 782.931 630.828 780.066 643.761 777.344 C 650.455 775.935 656.945 773.56 664.495 771.56 Z" style=""/><path fill="#e0def4" opacity="1.000000" stroke="none" d="M 244.768 436.726 C 249.638 433.389 254.113 430.249 258.797 427.458 C 265.238 423.62 271.934 420.206 278.346 416.322 C 288.088 410.421 297.583 404.11 307.363 398.275 C 316.193 393.008 325.266 388.147 334.23 383.105 C 340.583 379.532 346.812 375.707 353.352 372.519 C 355.531 371.457 359.072 370.974 361.016 372.026 C 369.647 376.698 377.833 382.184 386.361 387.06 C 392.472 390.554 398.99 393.333 405.109 396.816 C 415.119 402.513 424.958 408.512 434.856 414.406 C 439.793 417.346 444.627 420.467 449.639 423.271 C 456.674 427.207 463.978 430.677 470.9 434.796 C 479.667 440.012 488.329 445.443 496.73 451.225 C 503.314 455.757 502.813 455.686 495.276 459.876 C 483.17 466.605 471.504 474.122 459.572 481.17 C 454.8 483.988 449.707 486.268 444.944 489.101 C 433.528 495.89 422.281 502.963 410.847 509.719 C 404.436 513.507 397.711 516.761 391.265 520.491 C 381.184 526.326 371.277 532.466 361.147 538.212 C 359.418 539.192 356.416 539.792 354.898 538.951 C 349.008 535.684 343.619 531.524 337.78 528.152 C 330.864 524.158 323.522 520.896 316.643 516.846 C 307.359 511.379 298.404 505.357 289.185 499.776 C 282.991 496.026 276.536 492.708 270.284 489.05 C 261.348 483.822 252.462 478.506 243.607 473.139 C 237.189 469.249 230.889 465.163 224.474 461.268 C 221.087 459.212 217.565 457.379 212.973 454.813 C 223.969 448.621 234.218 442.85 244.768 436.726 M 294.558 459.783 C 297.147 460.957 299.891 461.877 302.299 463.347 C 312.485 469.569 322.525 476.029 332.708 482.255 C 340.232 486.856 347.83 491.349 355.558 495.592 C 356.867 496.31 359.337 496.105 360.704 495.33 C 368.036 491.17 375.17 486.663 382.41 482.338 C 387.303 479.415 392.281 476.635 397.178 473.719 C 407.852 467.364 418.499 460.964 429.737 454.235 C 428.516 454.023 427.774 454.09 427.264 453.777 C 417.131 447.557 407.119 441.132 396.888 435.078 C 384.237 427.59 371.422 420.378 358.621 413.148 C 357.916 412.751 356.487 412.954 355.739 413.425 C 350.822 416.521 346.085 419.91 341.127 422.936 C 329.192 430.221 317.21 437.432 305.161 444.527 C 299.24 448.013 293.127 451.173 287.013 454.529 C 289.432 456.145 291.66 457.635 294.558 459.783 Z" style=""/><path fill="#e0def4" opacity="1.000000" stroke="none" d="M 384.372 184.859 C 384.372 176.337 384.372 168.409 384.372 159.352 C 398.344 167.176 411.774 174.732 425.24 182.221 C 431.901 185.925 438.666 189.44 445.317 193.16 C 451.524 196.633 457.59 200.357 463.812 203.801 C 470.5 207.502 477.361 210.891 484.032 214.622 C 494.064 220.232 504.004 226.008 513.966 231.742 C 516.291 233.08 518.405 235.333 520.867 235.778 C 527.296 236.939 528.524 240.579 528.5 246.552 C 528.292 298.484 528.38 350.417 528.38 402.35 C 528.38 404.316 528.38 406.282 528.38 409.909 C 525.295 407.845 523.249 406.295 521.037 405.035 C 516.7 402.565 512.264 400.267 507.879 397.88 C 500.63 393.933 493.277 390.159 486.17 385.969 C 476.742 380.409 467.549 374.451 458.173 368.799 C 453.655 366.075 448.947 363.668 444.332 361.104 C 434.636 355.718 424.936 350.339 415.255 344.928 C 405.686 339.581 396.047 334.347 386.676 328.671 C 385.25 327.807 384.47 324.824 384.465 322.818 C 384.343 277.03 384.371 231.242 384.372 184.859 M 421.834 224.795 C 421.646 225.748 421.294 226.7 421.293 227.652 C 421.262 252.152 421.252 276.652 421.308 301.152 C 421.311 302.443 421.929 303.733 422.613 305.83 C 431.298 310.92 439.926 316.11 448.682 321.076 C 462.462 328.892 476.328 336.558 490.94 343.667 C 491.12 342.121 491.455 340.575 491.456 339.029 C 491.475 313.781 491.451 288.532 491.107 262.481 C 489.832 261.567 488.62 260.544 487.271 259.757 C 478.819 254.825 470.427 249.779 461.842 245.088 C 448.845 237.987 435.706 231.144 421.834 224.795 Z" style=""/><path fill="#e0def4" opacity="1.000000" stroke="none" d="M 527.228 668.199 C 522.096 671.509 517.093 675.045 511.803 678.081 C 501.198 684.167 490.364 689.857 479.758 695.942 C 469.242 701.976 458.936 708.375 448.447 714.457 C 442.695 717.791 436.653 720.625 430.921 723.99 C 416.459 732.479 402.113 741.165 387.671 749.69 C 386.451 750.41 384.865 750.513 384.373 750.649 C 384.373 743.865 384.373 736.877 384.373 729.889 C 384.373 682.49 384.418 635.091 384.299 587.693 C 384.288 583.336 386.051 581.511 389.824 579.422 C 401.495 572.961 412.667 565.607 424.142 558.783 C 428.86 555.978 433.906 553.732 438.715 551.073 C 449.644 545.03 460.588 539.006 471.4 532.755 C 484.02 525.459 496.554 518.01 509.027 510.465 C 514.32 507.263 519.341 503.613 524.556 500.277 C 525.072 499.947 526.08 500.387 527.029 501.441 C 527.208 557.675 527.218 612.937 527.228 668.199 M 490.283 644.409 C 490.29 620.184 490.328 595.959 490.246 571.735 C 490.239 569.728 489.413 567.724 488.071 565.7 C 482.571 569.267 477.179 573.016 471.546 576.359 C 463.694 581.02 455.699 585.447 447.695 589.846 C 441.196 593.417 434.412 596.509 428.119 600.403 C 425.368 602.105 421.613 605.241 421.566 607.786 C 421.082 633.693 421.27 659.613 421.27 686.225 C 425.577 683.744 429.358 681.621 433.085 679.409 C 444.127 672.858 455.059 666.117 466.206 659.754 C 473.67 655.493 481.444 651.778 489.025 647.719 C 489.643 647.388 489.847 646.284 490.283 644.409 Z" style=""/><path fill="#e0def4" opacity="1.000000" stroke="none" d="M 527.684 667.929 C 527.218 612.937 527.208 557.675 527.214 501.847 C 527.61 502.679 528.322 504.076 528.323 505.474 C 528.378 558.949 528.368 612.424 528.356 665.899 C 528.356 666.486 528.214 667.073 527.684 667.929 Z" style=""/><path fill="#e0def4" opacity="1.000000" stroke="none" d="M 422.231 224.494 C 422.569 250.77 422.51 277.348 422.356 304.475 C 421.929 303.733 421.311 302.443 421.308 301.152 C 421.252 276.652 421.262 252.152 421.293 227.652 C 421.294 226.7 421.646 225.748 422.231 224.494 Z" style=""/><path fill="#e0def4" opacity="1.000000" stroke="none" d="M 490.549 343.977 C 490.201 319.617 490.24 294.947 490.298 270.277 C 490.303 268.113 490.436 265.949 490.974 263.534 C 491.451 288.532 491.475 313.781 491.456 339.029 C 491.455 340.575 491.12 342.121 490.549 343.977 Z" style=""/><path fill="#e0def4" opacity="1.000000" stroke="none" d="M 490.263 644.974 C 489.862 643.559 489.155 641.579 489.148 639.597 C 489.069 615.339 489.093 591.081 489.029 566.271 C 489.413 567.724 490.239 569.728 490.246 571.735 C 490.328 595.959 490.29 620.184 490.263 644.974 Z" style=""/></g></svg>