<svg id="visual" viewBox="0 0 960 540" width="960" height="540" xmlns="http://www.w3.org/2000/svg" xmlns:xlink="http://www.w3.org/1999/xlink" version="1.1"><g stroke-width="1" stroke-linejoin="bevel"><path d="M480 270L480 225L432 225Z" fill="#26243a" stroke="#26243a"></path><path d="M432 225L432 270L480 270Z" fill="#2a273f" stroke="#2a273f"></path><path d="M480 225L432 180L432 225Z" fill="#26243a" stroke="#26243a"></path><path d="M480 225L480 180L432 180Z" fill="#232136" stroke="#232136"></path><path d="M432 270L432 315L480 270Z" fill="#252339" stroke="#252339"></path><path d="M432 315L480 315L480 270Z" fill="#242238" stroke="#242238"></path><path d="M384 225L384 270L432 225Z" fill="#28253c" stroke="#28253c"></path><path d="M432 225L384 270L432 270Z" fill="#28263d" stroke="#28263d"></path><path d="M432 270L384 270L432 315Z" fill="#2a273f" stroke="#2a273f"></path><path d="M528 270L528 225L480 270Z" fill="#26243a" stroke="#26243a"></path><path d="M480 270L528 225L480 225Z" fill="#26243a" stroke="#26243a"></path><path d="M480 225L528 225L480 180Z" fill="#242237" stroke="#242237"></path><path d="M432 180L384 225L432 225Z" fill="#29263e" stroke="#29263e"></path><path d="M480 315L528 270L480 270Z" fill="#28253c" stroke="#28253c"></path><path d="M528 225L528 180L480 180Z" fill="#242238" stroke="#242238"></path><path d="M432 180L384 180L384 225Z" fill="#26243a" stroke="#26243a"></path><path d="M384 270L384 315L432 315Z" fill="#252338" stroke="#252338"></path><path d="M480 315L528 315L528 270Z" fill="#29263e" stroke="#29263e"></path><path d="M384 315L432 360L432 315Z" fill="#232136" stroke="#232136"></path><path d="M432 315L432 360L480 315Z" fill="#242237" stroke="#242237"></path><path d="M480 315L480 360L528 315Z" fill="#27253b" stroke="#27253b"></path><path d="M432 360L480 360L480 315Z" fill="#26243a" stroke="#26243a"></path><path d="M528 180L480 135L480 180Z" fill="#26243a" stroke="#26243a"></path><path d="M480 180L480 135L432 180Z" fill="#27253b" stroke="#27253b"></path><path d="M432 180L432 135L384 180Z" fill="#2a273f" stroke="#2a273f"></path><path d="M480 135L432 135L432 180Z" fill="#2a273f" stroke="#2a273f"></path><path d="M384 180L336 225L384 225Z" fill="#28263d" stroke="#28263d"></path><path d="M384 225L336 225L384 270Z" fill="#28253c" stroke="#28253c"></path><path d="M384 270L336 270L384 315Z" fill="#252338" stroke="#252338"></path><path d="M528 270L576 225L528 225Z" fill="#252339" stroke="#252339"></path><path d="M528 225L576 225L528 180Z" fill="#252338" stroke="#252338"></path><path d="M576 270L576 225L528 270Z" fill="#28253c" stroke="#28253c"></path><path d="M336 225L336 270L384 270Z" fill="#28263d" stroke="#28263d"></path><path d="M528 315L576 270L528 270Z" fill="#252339" stroke="#252339"></path><path d="M336 315L384 360L384 315Z" fill="#27253b" stroke="#27253b"></path><path d="M384 315L384 360L432 360Z" fill="#232136" stroke="#232136"></path><path d="M432 135L384 135L384 180Z" fill="#232136" stroke="#232136"></path><path d="M384 180L336 180L336 225Z" fill="#29263e" stroke="#29263e"></path><path d="M576 180L528 135L528 180Z" fill="#28263d" stroke="#28263d"></path><path d="M528 180L528 135L480 135Z" fill="#28263d" stroke="#28263d"></path><path d="M480 360L528 360L528 315Z" fill="#2a273f" stroke="#2a273f"></path><path d="M528 315L576 315L576 270Z" fill="#29263e" stroke="#29263e"></path><path d="M576 225L576 180L528 180Z" fill="#28253c" stroke="#28253c"></path><path d="M336 270L336 315L384 315Z" fill="#2a273f" stroke="#2a273f"></path><path d="M528 360L576 315L528 315Z" fill="#29263e" stroke="#29263e"></path><path d="M384 135L336 180L384 180Z" fill="#29263e" stroke="#29263e"></path><path d="M384 360L432 405L432 360Z" fill="#28263d" stroke="#28263d"></path><path d="M432 360L432 405L480 360Z" fill="#252338" stroke="#252338"></path><path d="M480 360L480 405L528 360Z" fill="#252338" stroke="#252338"></path><path d="M432 405L480 405L480 360Z" fill="#252339" stroke="#252339"></path><path d="M528 135L480 90L480 135Z" fill="#28253c" stroke="#28253c"></path><path d="M480 135L480 90L432 135Z" fill="#242238" stroke="#242238"></path><path d="M432 135L432 90L384 135Z" fill="#27253b" stroke="#27253b"></path><path d="M480 90L432 90L432 135Z" fill="#2a273f" stroke="#2a273f"></path><path d="M576 180L576 135L528 135Z" fill="#232136" stroke="#232136"></path><path d="M528 135L528 90L480 90Z" fill="#28253c" stroke="#28253c"></path><path d="M336 315L336 360L384 360Z" fill="#252339" stroke="#252339"></path><path d="M384 360L384 405L432 405Z" fill="#242238" stroke="#242238"></path><path d="M528 360L576 360L576 315Z" fill="#252338" stroke="#252338"></path><path d="M528 405L576 360L528 360Z" fill="#242238" stroke="#242238"></path><path d="M384 90L336 135L384 135Z" fill="#232136" stroke="#232136"></path><path d="M384 135L336 135L336 180Z" fill="#28263d" stroke="#28263d"></path><path d="M576 270L624 225L576 225Z" fill="#26243a" stroke="#26243a"></path><path d="M576 225L624 225L576 180Z" fill="#242238" stroke="#242238"></path><path d="M576 180L624 180L576 135Z" fill="#26243a" stroke="#26243a"></path><path d="M624 270L624 225L576 270Z" fill="#29263e" stroke="#29263e"></path><path d="M624 270L576 270L576 315Z" fill="#252339" stroke="#252339"></path><path d="M336 225L288 270L336 270Z" fill="#27253b" stroke="#27253b"></path><path d="M336 270L288 270L336 315Z" fill="#28253c" stroke="#28253c"></path><path d="M336 315L288 315L336 360Z" fill="#242237" stroke="#242237"></path><path d="M288 225L288 270L336 225Z" fill="#252338" stroke="#252338"></path><path d="M288 225L336 225L336 180Z" fill="#27253b" stroke="#27253b"></path><path d="M624 315L624 270L576 315Z" fill="#252339" stroke="#252339"></path><path d="M288 180L288 225L336 180Z" fill="#28253c" stroke="#28253c"></path><path d="M480 405L528 405L528 360Z" fill="#28263d" stroke="#28263d"></path><path d="M432 90L384 90L384 135Z" fill="#27253b" stroke="#27253b"></path><path d="M576 135L528 90L528 135Z" fill="#242237" stroke="#242237"></path><path d="M336 360L384 405L384 360Z" fill="#252339" stroke="#252339"></path><path d="M576 360L624 315L576 315Z" fill="#252338" stroke="#252338"></path><path d="M336 135L288 180L336 180Z" fill="#232136" stroke="#232136"></path><path d="M288 270L288 315L336 315Z" fill="#28253c" stroke="#28253c"></path><path d="M624 225L624 180L576 180Z" fill="#2a273f" stroke="#2a273f"></path><path d="M528 405L576 405L576 360Z" fill="#2a273f" stroke="#2a273f"></path><path d="M576 360L624 360L624 315Z" fill="#252339" stroke="#252339"></path><path d="M384 90L336 90L336 135Z" fill="#26243a" stroke="#26243a"></path><path d="M336 135L288 135L288 180Z" fill="#28253c" stroke="#28253c"></path><path d="M624 135L576 90L576 135Z" fill="#26243a" stroke="#26243a"></path><path d="M576 135L576 90L528 90Z" fill="#28253c" stroke="#28253c"></path><path d="M288 360L336 405L336 360Z" fill="#27253b" stroke="#27253b"></path><path d="M336 360L336 405L384 405Z" fill="#29263e" stroke="#29263e"></path><path d="M576 405L624 360L576 360Z" fill="#2a273f" stroke="#2a273f"></path><path d="M336 90L288 135L336 135Z" fill="#242238" stroke="#242238"></path><path d="M624 180L624 135L576 135Z" fill="#242238" stroke="#242238"></path><path d="M288 315L288 360L336 360Z" fill="#242238" stroke="#242238"></path><path d="M432 405L480 450L480 405Z" fill="#29263e" stroke="#29263e"></path><path d="M480 405L480 450L528 405Z" fill="#232136" stroke="#232136"></path><path d="M528 405L528 450L576 405Z" fill="#27253b" stroke="#27253b"></path><path d="M432 450L480 450L432 405Z" fill="#252338" stroke="#252338"></path><path d="M432 450L432 405L384 405Z" fill="#28253c" stroke="#28253c"></path><path d="M528 90L480 45L480 90Z" fill="#28253c" stroke="#28253c"></path><path d="M480 90L480 45L432 90Z" fill="#242238" stroke="#242238"></path><path d="M432 90L432 45L384 90Z" fill="#2a273f" stroke="#2a273f"></path><path d="M384 90L384 45L336 90Z" fill="#252339" stroke="#252339"></path><path d="M528 45L480 45L528 90Z" fill="#242238" stroke="#242238"></path><path d="M480 45L432 45L432 90Z" fill="#242237" stroke="#242237"></path><path d="M384 450L432 450L384 405Z" fill="#252339" stroke="#252339"></path><path d="M480 450L528 450L528 405Z" fill="#26243a" stroke="#26243a"></path><path d="M432 45L384 45L384 90Z" fill="#232136" stroke="#232136"></path><path d="M336 405L384 450L384 405Z" fill="#242238" stroke="#242238"></path><path d="M576 90L528 45L528 90Z" fill="#232136" stroke="#232136"></path><path d="M288 225L240 270L288 270Z" fill="#242238" stroke="#242238"></path><path d="M288 270L240 270L288 315Z" fill="#28253c" stroke="#28253c"></path><path d="M288 315L240 315L288 360Z" fill="#232136" stroke="#232136"></path><path d="M240 225L240 270L288 225Z" fill="#2a273f" stroke="#2a273f"></path><path d="M240 225L288 225L288 180Z" fill="#232136" stroke="#232136"></path><path d="M240 180L240 225L288 180Z" fill="#27253b" stroke="#27253b"></path><path d="M672 270L624 270L624 315Z" fill="#28253c" stroke="#28253c"></path><path d="M672 270L672 225L624 270Z" fill="#29263e" stroke="#29263e"></path><path d="M624 270L672 225L624 225Z" fill="#2a273f" stroke="#2a273f"></path><path d="M624 225L672 225L624 180Z" fill="#2a273f" stroke="#2a273f"></path><path d="M624 180L672 180L624 135Z" fill="#242238" stroke="#242238"></path><path d="M672 315L672 270L624 315Z" fill="#26243a" stroke="#26243a"></path><path d="M624 360L672 315L624 315Z" fill="#232136" stroke="#232136"></path><path d="M672 225L672 180L624 180Z" fill="#28263d" stroke="#28263d"></path><path d="M240 270L240 315L288 315Z" fill="#29263e" stroke="#29263e"></path><path d="M288 135L240 180L288 180Z" fill="#232136" stroke="#232136"></path><path d="M288 360L288 405L336 405Z" fill="#252339" stroke="#252339"></path><path d="M336 405L336 450L384 450Z" fill="#242237" stroke="#242237"></path><path d="M240 360L288 405L288 360Z" fill="#27253b" stroke="#27253b"></path><path d="M624 135L624 90L576 90Z" fill="#252339" stroke="#252339"></path><path d="M576 90L576 45L528 45Z" fill="#26243a" stroke="#26243a"></path><path d="M672 135L624 90L624 135Z" fill="#252339" stroke="#252339"></path><path d="M336 45L288 90L336 90Z" fill="#232136" stroke="#232136"></path><path d="M336 90L288 90L288 135Z" fill="#232136" stroke="#232136"></path><path d="M288 135L240 135L240 180Z" fill="#242237" stroke="#242237"></path><path d="M576 405L624 405L624 360Z" fill="#2a273f" stroke="#2a273f"></path><path d="M624 360L672 360L672 315Z" fill="#2a273f" stroke="#2a273f"></path><path d="M576 450L624 405L576 405Z" fill="#27253b" stroke="#27253b"></path><path d="M384 45L336 45L336 90Z" fill="#2a273f" stroke="#2a273f"></path><path d="M528 450L576 450L576 405Z" fill="#242238" stroke="#242238"></path><path d="M624 90L576 45L576 90Z" fill="#242238" stroke="#242238"></path><path d="M288 405L336 450L336 405Z" fill="#252338" stroke="#252338"></path><path d="M624 405L672 360L624 360Z" fill="#28253c" stroke="#28253c"></path><path d="M240 315L240 360L288 360Z" fill="#28253c" stroke="#28253c"></path><path d="M288 90L240 135L288 135Z" fill="#252339" stroke="#252339"></path><path d="M672 180L672 135L624 135Z" fill="#29263e" stroke="#29263e"></path><path d="M432 45L432 0L384 45Z" fill="#28253c" stroke="#28253c"></path><path d="M384 45L384 0L336 45Z" fill="#232136" stroke="#232136"></path><path d="M480 45L432 0L432 45Z" fill="#28263d" stroke="#28263d"></path><path d="M480 0L432 0L480 45Z" fill="#28253c" stroke="#28253c"></path><path d="M480 0L480 45L528 45Z" fill="#2a273f" stroke="#2a273f"></path><path d="M384 495L432 495L384 450Z" fill="#28263d" stroke="#28263d"></path><path d="M384 450L432 495L432 450Z" fill="#28263d" stroke="#28263d"></path><path d="M432 450L432 495L480 450Z" fill="#252338" stroke="#252338"></path><path d="M480 450L480 495L528 450Z" fill="#2a273f" stroke="#2a273f"></path><path d="M528 450L528 495L576 450Z" fill="#232136" stroke="#232136"></path><path d="M432 495L480 495L480 450Z" fill="#2a273f" stroke="#2a273f"></path><path d="M528 0L480 0L528 45Z" fill="#2a273f" stroke="#2a273f"></path><path d="M576 45L528 0L528 45Z" fill="#28263d" stroke="#28263d"></path><path d="M432 0L384 0L384 45Z" fill="#27253b" stroke="#27253b"></path><path d="M336 450L384 495L384 450Z" fill="#28263d" stroke="#28263d"></path><path d="M480 495L528 495L528 450Z" fill="#2a273f" stroke="#2a273f"></path><path d="M288 405L288 450L336 450Z" fill="#27253b" stroke="#27253b"></path><path d="M336 450L336 495L384 495Z" fill="#232136" stroke="#232136"></path><path d="M240 405L288 450L288 405Z" fill="#26243a" stroke="#26243a"></path><path d="M336 45L288 45L288 90Z" fill="#252338" stroke="#252338"></path><path d="M288 90L240 90L240 135Z" fill="#242237" stroke="#242237"></path><path d="M336 0L288 45L336 45Z" fill="#252338" stroke="#252338"></path><path d="M672 90L624 45L624 90Z" fill="#28253c" stroke="#28253c"></path><path d="M624 90L624 45L576 45Z" fill="#242238" stroke="#242238"></path><path d="M576 45L576 0L528 0Z" fill="#29263e" stroke="#29263e"></path><path d="M576 450L624 450L624 405Z" fill="#232136" stroke="#232136"></path><path d="M624 405L672 405L672 360Z" fill="#2a273f" stroke="#2a273f"></path><path d="M576 495L624 450L576 450Z" fill="#26243a" stroke="#26243a"></path><path d="M672 270L720 270L672 225Z" fill="#232136" stroke="#232136"></path><path d="M672 225L720 225L672 180Z" fill="#242237" stroke="#242237"></path><path d="M672 180L720 180L672 135Z" fill="#28253c" stroke="#28253c"></path><path d="M672 315L720 270L672 270Z" fill="#28263d" stroke="#28263d"></path><path d="M720 315L720 270L672 315Z" fill="#252339" stroke="#252339"></path><path d="M240 225L192 270L240 270Z" fill="#29263e" stroke="#29263e"></path><path d="M240 270L192 270L240 315Z" fill="#2a273f" stroke="#2a273f"></path><path d="M240 315L192 315L240 360Z" fill="#28263d" stroke="#28263d"></path><path d="M192 225L192 270L240 225Z" fill="#232136" stroke="#232136"></path><path d="M192 225L240 225L240 180Z" fill="#242238" stroke="#242238"></path><path d="M720 270L720 225L672 225Z" fill="#2a273f" stroke="#2a273f"></path><path d="M192 180L192 225L240 180Z" fill="#28253c" stroke="#28253c"></path><path d="M624 450L672 405L624 405Z" fill="#242237" stroke="#242237"></path><path d="M672 360L720 315L672 315Z" fill="#26243a" stroke="#26243a"></path><path d="M288 45L240 90L288 90Z" fill="#2a273f" stroke="#2a273f"></path><path d="M240 135L192 180L240 180Z" fill="#29263e" stroke="#29263e"></path><path d="M672 135L672 90L624 90Z" fill="#232136" stroke="#232136"></path><path d="M720 135L672 90L672 135Z" fill="#242237" stroke="#242237"></path><path d="M192 360L240 405L240 360Z" fill="#29263e" stroke="#29263e"></path><path d="M240 360L240 405L288 405Z" fill="#242237" stroke="#242237"></path><path d="M720 360L720 315L672 360Z" fill="#242237" stroke="#242237"></path><path d="M192 135L192 180L240 135Z" fill="#242237" stroke="#242237"></path><path d="M720 225L720 180L672 180Z" fill="#232136" stroke="#232136"></path><path d="M192 270L192 315L240 315Z" fill="#232136" stroke="#232136"></path><path d="M624 45L576 0L576 45Z" fill="#242238" stroke="#242238"></path><path d="M528 495L576 495L576 450Z" fill="#242238" stroke="#242238"></path><path d="M288 450L336 495L336 450Z" fill="#232136" stroke="#232136"></path><path d="M384 0L336 0L336 45Z" fill="#29263e" stroke="#29263e"></path><path d="M192 315L192 360L240 360Z" fill="#29263e" stroke="#29263e"></path><path d="M720 180L720 135L672 135Z" fill="#28263d" stroke="#28263d"></path><path d="M240 90L192 135L240 135Z" fill="#242237" stroke="#242237"></path><path d="M672 405L720 360L672 360Z" fill="#252338" stroke="#252338"></path><path d="M432 495L480 540L480 495Z" fill="#26243a" stroke="#26243a"></path><path d="M480 495L480 540L528 495Z" fill="#29263e" stroke="#29263e"></path><path d="M528 495L528 540L576 495Z" fill="#28253c" stroke="#28253c"></path><path d="M432 540L480 540L432 495Z" fill="#252338" stroke="#252338"></path><path d="M432 540L432 495L384 495Z" fill="#252339" stroke="#252339"></path><path d="M384 540L432 540L384 495Z" fill="#2a273f" stroke="#2a273f"></path><path d="M672 90L672 45L624 45Z" fill="#242237" stroke="#242237"></path><path d="M624 45L624 0L576 0Z" fill="#29263e" stroke="#29263e"></path><path d="M720 90L672 45L672 90Z" fill="#2a273f" stroke="#2a273f"></path><path d="M288 450L288 495L336 495Z" fill="#29263e" stroke="#29263e"></path><path d="M240 405L240 450L288 450Z" fill="#242238" stroke="#242238"></path><path d="M192 405L240 450L240 405Z" fill="#29263e" stroke="#29263e"></path><path d="M624 450L672 450L672 405Z" fill="#26243a" stroke="#26243a"></path><path d="M672 405L720 405L720 360Z" fill="#242238" stroke="#242238"></path><path d="M624 495L672 450L624 450Z" fill="#28263d" stroke="#28263d"></path><path d="M288 0L240 45L288 45Z" fill="#242238" stroke="#242238"></path><path d="M288 45L240 45L240 90Z" fill="#252338" stroke="#252338"></path><path d="M240 90L192 90L192 135Z" fill="#232136" stroke="#232136"></path><path d="M576 540L624 495L576 495Z" fill="#242238" stroke="#242238"></path><path d="M576 495L624 495L624 450Z" fill="#27253b" stroke="#27253b"></path><path d="M336 0L288 0L288 45Z" fill="#27253b" stroke="#27253b"></path><path d="M672 45L624 0L624 45Z" fill="#232136" stroke="#232136"></path><path d="M240 450L288 495L288 450Z" fill="#252339" stroke="#252339"></path><path d="M336 495L384 540L384 495Z" fill="#26243a" stroke="#26243a"></path><path d="M336 540L384 540L336 495Z" fill="#2a273f" stroke="#2a273f"></path><path d="M480 540L528 540L528 495Z" fill="#242237" stroke="#242237"></path><path d="M672 450L720 405L672 405Z" fill="#29263e" stroke="#29263e"></path><path d="M240 45L192 90L240 90Z" fill="#252339" stroke="#252339"></path><path d="M720 135L720 90L672 90Z" fill="#27253b" stroke="#27253b"></path><path d="M192 360L192 405L240 405Z" fill="#2a273f" stroke="#2a273f"></path><path d="M720 270L768 270L720 225Z" fill="#242237" stroke="#242237"></path><path d="M720 225L768 225L720 180Z" fill="#29263e" stroke="#29263e"></path><path d="M720 180L768 180L720 135Z" fill="#29263e" stroke="#29263e"></path><path d="M720 135L768 135L720 90Z" fill="#28253c" stroke="#28253c"></path><path d="M720 315L768 270L720 270Z" fill="#27253b" stroke="#27253b"></path><path d="M768 315L768 270L720 315Z" fill="#29263e" stroke="#29263e"></path><path d="M768 315L720 315L720 360Z" fill="#2a273f" stroke="#2a273f"></path><path d="M192 270L144 270L192 315Z" fill="#242238" stroke="#242238"></path><path d="M192 315L144 315L192 360Z" fill="#29263e" stroke="#29263e"></path><path d="M192 360L144 360L192 405Z" fill="#28263d" stroke="#28263d"></path><path d="M192 225L144 270L192 270Z" fill="#27253b" stroke="#27253b"></path><path d="M144 225L144 270L192 225Z" fill="#242237" stroke="#242237"></path><path d="M144 225L192 225L192 180Z" fill="#28263d" stroke="#28263d"></path><path d="M144 225L192 180L144 180Z" fill="#252338" stroke="#252338"></path><path d="M144 180L192 180L192 135Z" fill="#2a273f" stroke="#2a273f"></path><path d="M768 270L768 225L720 225Z" fill="#27253b" stroke="#27253b"></path><path d="M288 495L336 540L336 495Z" fill="#27253b" stroke="#27253b"></path><path d="M528 540L576 540L576 495Z" fill="#2a273f" stroke="#2a273f"></path><path d="M144 270L144 315L192 315Z" fill="#242238" stroke="#242238"></path><path d="M144 135L144 180L192 135Z" fill="#28253c" stroke="#28253c"></path><path d="M768 225L768 180L720 180Z" fill="#252338" stroke="#252338"></path><path d="M768 360L768 315L720 360Z" fill="#252338" stroke="#252338"></path><path d="M288 0L240 0L240 45Z" fill="#27253b" stroke="#27253b"></path><path d="M240 45L192 45L192 90Z" fill="#242238" stroke="#242238"></path><path d="M672 450L720 450L720 405Z" fill="#27253b" stroke="#27253b"></path><path d="M624 495L672 495L672 450Z" fill="#242238" stroke="#242238"></path><path d="M624 540L672 495L624 495Z" fill="#252339" stroke="#252339"></path><path d="M240 450L240 495L288 495Z" fill="#232136" stroke="#232136"></path><path d="M288 495L288 540L336 540Z" fill="#232136" stroke="#232136"></path><path d="M192 450L240 495L240 450Z" fill="#29263e" stroke="#29263e"></path><path d="M720 45L672 0L672 45Z" fill="#28253c" stroke="#28253c"></path><path d="M672 45L672 0L624 0Z" fill="#26243a" stroke="#26243a"></path><path d="M720 405L768 360L720 360Z" fill="#242238" stroke="#242238"></path><path d="M768 405L768 360L720 405Z" fill="#232136" stroke="#232136"></path><path d="M144 90L144 135L192 90Z" fill="#242237" stroke="#242237"></path><path d="M192 90L144 135L192 135Z" fill="#28253c" stroke="#28253c"></path><path d="M768 180L768 135L720 135Z" fill="#27253b" stroke="#27253b"></path><path d="M720 90L720 45L672 45Z" fill="#26243a" stroke="#26243a"></path><path d="M144 315L144 360L192 360Z" fill="#242237" stroke="#242237"></path><path d="M192 405L192 450L240 450Z" fill="#28263d" stroke="#28263d"></path><path d="M240 0L192 45L240 45Z" fill="#29263e" stroke="#29263e"></path><path d="M144 405L192 450L192 405Z" fill="#232136" stroke="#232136"></path><path d="M672 495L720 450L672 450Z" fill="#232136" stroke="#232136"></path><path d="M768 90L720 45L720 90Z" fill="#29263e" stroke="#29263e"></path><path d="M240 495L288 540L288 495Z" fill="#252339" stroke="#252339"></path><path d="M576 540L624 540L624 495Z" fill="#2a273f" stroke="#2a273f"></path><path d="M768 135L768 90L720 90Z" fill="#2a273f" stroke="#2a273f"></path><path d="M192 45L144 90L192 90Z" fill="#232136" stroke="#232136"></path><path d="M720 450L768 405L720 405Z" fill="#2a273f" stroke="#2a273f"></path><path d="M144 360L144 405L192 405Z" fill="#252338" stroke="#252338"></path><path d="M144 270L96 270L144 315Z" fill="#2a273f" stroke="#2a273f"></path><path d="M144 315L96 315L144 360Z" fill="#28263d" stroke="#28263d"></path><path d="M144 360L96 360L144 405Z" fill="#232136" stroke="#232136"></path><path d="M144 225L96 270L144 270Z" fill="#27253b" stroke="#27253b"></path><path d="M96 225L96 270L144 225Z" fill="#28263d" stroke="#28263d"></path><path d="M96 225L144 225L144 180Z" fill="#242238" stroke="#242238"></path><path d="M96 225L144 180L96 180Z" fill="#27253b" stroke="#27253b"></path><path d="M96 180L144 180L144 135Z" fill="#28263d" stroke="#28263d"></path><path d="M768 270L816 225L768 225Z" fill="#242237" stroke="#242237"></path><path d="M768 225L816 225L768 180Z" fill="#28253c" stroke="#28253c"></path><path d="M768 180L816 180L768 135Z" fill="#242237" stroke="#242237"></path><path d="M768 135L816 135L768 90Z" fill="#252338" stroke="#252338"></path><path d="M816 270L816 225L768 270Z" fill="#232136" stroke="#232136"></path><path d="M816 270L768 270L768 315Z" fill="#27253b" stroke="#27253b"></path><path d="M816 270L768 315L816 315Z" fill="#232136" stroke="#232136"></path><path d="M816 315L768 315L768 360Z" fill="#27253b" stroke="#27253b"></path><path d="M672 495L720 495L720 450Z" fill="#27253b" stroke="#27253b"></path><path d="M720 450L768 450L768 405Z" fill="#232136" stroke="#232136"></path><path d="M672 540L720 495L672 495Z" fill="#252338" stroke="#252338"></path><path d="M768 45L720 0L720 45Z" fill="#252338" stroke="#252338"></path><path d="M720 45L720 0L672 0Z" fill="#28263d" stroke="#28263d"></path><path d="M192 450L192 495L240 495Z" fill="#27253b" stroke="#27253b"></path><path d="M240 495L240 540L288 540Z" fill="#29263e" stroke="#29263e"></path><path d="M144 450L192 495L192 450Z" fill="#29263e" stroke="#29263e"></path><path d="M240 0L192 0L192 45Z" fill="#252338" stroke="#252338"></path><path d="M192 45L144 45L144 90Z" fill="#242237" stroke="#242237"></path><path d="M192 495L240 540L240 495Z" fill="#242238" stroke="#242238"></path><path d="M624 540L672 540L672 495Z" fill="#242237" stroke="#242237"></path><path d="M816 360L816 315L768 360Z" fill="#242237" stroke="#242237"></path><path d="M816 225L816 180L768 180Z" fill="#242238" stroke="#242238"></path><path d="M96 270L96 315L144 315Z" fill="#29263e" stroke="#29263e"></path><path d="M96 135L96 180L144 135Z" fill="#29263e" stroke="#29263e"></path><path d="M768 90L768 45L720 45Z" fill="#27253b" stroke="#27253b"></path><path d="M816 90L768 45L768 90Z" fill="#232136" stroke="#232136"></path><path d="M96 405L144 450L144 405Z" fill="#252338" stroke="#252338"></path><path d="M144 405L144 450L192 450Z" fill="#252339" stroke="#252339"></path><path d="M720 495L768 450L720 450Z" fill="#28263d" stroke="#28263d"></path><path d="M768 405L816 360L768 360Z" fill="#232136" stroke="#232136"></path><path d="M192 0L144 45L192 45Z" fill="#29263e" stroke="#29263e"></path><path d="M144 90L96 135L144 135Z" fill="#26243a" stroke="#26243a"></path><path d="M816 180L816 135L768 135Z" fill="#27253b" stroke="#27253b"></path><path d="M96 315L96 360L144 360Z" fill="#252339" stroke="#252339"></path><path d="M96 90L96 135L144 90Z" fill="#242237" stroke="#242237"></path><path d="M816 405L816 360L768 405Z" fill="#29263e" stroke="#29263e"></path><path d="M144 45L96 90L144 90Z" fill="#232136" stroke="#232136"></path><path d="M96 360L96 405L144 405Z" fill="#232136" stroke="#232136"></path><path d="M768 450L816 405L768 405Z" fill="#28253c" stroke="#28253c"></path><path d="M816 135L816 90L768 90Z" fill="#28263d" stroke="#28263d"></path><path d="M720 495L768 495L768 450Z" fill="#242237" stroke="#242237"></path><path d="M768 450L816 450L816 405Z" fill="#232136" stroke="#232136"></path><path d="M672 540L720 540L720 495Z" fill="#28263d" stroke="#28263d"></path><path d="M144 495L192 540L192 495Z" fill="#242238" stroke="#242238"></path><path d="M192 495L192 540L240 540Z" fill="#28263d" stroke="#28263d"></path><path d="M144 495L192 495L144 450Z" fill="#242238" stroke="#242238"></path><path d="M192 0L144 0L144 45Z" fill="#242238" stroke="#242238"></path><path d="M144 45L96 45L96 90Z" fill="#252338" stroke="#252338"></path><path d="M720 540L768 495L720 495Z" fill="#252338" stroke="#252338"></path><path d="M96 450L144 495L144 450Z" fill="#28253c" stroke="#28253c"></path><path d="M816 45L768 0L768 45Z" fill="#28253c" stroke="#28253c"></path><path d="M768 45L768 0L720 0Z" fill="#232136" stroke="#232136"></path><path d="M816 270L864 225L816 225Z" fill="#27253b" stroke="#27253b"></path><path d="M816 225L864 225L816 180Z" fill="#252338" stroke="#252338"></path><path d="M816 180L864 180L816 135Z" fill="#242238" stroke="#242238"></path><path d="M816 135L864 135L816 90Z" fill="#27253b" stroke="#27253b"></path><path d="M864 270L864 225L816 270Z" fill="#27253b" stroke="#27253b"></path><path d="M864 270L816 270L816 315Z" fill="#28263d" stroke="#28263d"></path><path d="M864 270L816 315L864 315Z" fill="#2a273f" stroke="#2a273f"></path><path d="M48 180L48 225L96 180Z" fill="#242238" stroke="#242238"></path><path d="M96 180L48 225L96 225Z" fill="#232136" stroke="#232136"></path><path d="M96 225L48 225L96 270Z" fill="#29263e" stroke="#29263e"></path><path d="M96 270L48 270L96 315Z" fill="#252339" stroke="#252339"></path><path d="M96 315L48 315L96 360Z" fill="#27253b" stroke="#27253b"></path><path d="M96 360L48 360L96 405Z" fill="#27253b" stroke="#27253b"></path><path d="M48 180L96 180L96 135Z" fill="#28263d" stroke="#28263d"></path><path d="M48 225L48 270L96 270Z" fill="#252338" stroke="#252338"></path><path d="M864 315L816 315L816 360Z" fill="#242237" stroke="#242237"></path><path d="M816 90L816 45L768 45Z" fill="#252338" stroke="#252338"></path><path d="M864 90L816 45L816 90Z" fill="#232136" stroke="#232136"></path><path d="M768 495L816 450L768 450Z" fill="#232136" stroke="#232136"></path><path d="M864 360L864 315L816 360Z" fill="#242237" stroke="#242237"></path><path d="M144 0L96 45L144 45Z" fill="#28263d" stroke="#28263d"></path><path d="M48 135L48 180L96 135Z" fill="#252339" stroke="#252339"></path><path d="M48 405L96 450L96 405Z" fill="#26243a" stroke="#26243a"></path><path d="M96 405L96 450L144 450Z" fill="#27253b" stroke="#27253b"></path><path d="M48 270L48 315L96 315Z" fill="#242238" stroke="#242238"></path><path d="M48 135L96 135L96 90Z" fill="#29263e" stroke="#29263e"></path><path d="M864 225L864 180L816 180Z" fill="#28253c" stroke="#28253c"></path><path d="M864 360L816 360L816 405Z" fill="#28263d" stroke="#28263d"></path><path d="M864 405L864 360L816 405Z" fill="#252338" stroke="#252338"></path><path d="M864 180L864 135L816 135Z" fill="#26243a" stroke="#26243a"></path><path d="M48 90L48 135L96 90Z" fill="#27253b" stroke="#27253b"></path><path d="M48 315L48 360L96 360Z" fill="#232136" stroke="#232136"></path><path d="M768 495L816 495L816 450Z" fill="#252338" stroke="#252338"></path><path d="M720 540L768 540L768 495Z" fill="#242237" stroke="#242237"></path><path d="M144 495L144 540L192 540Z" fill="#26243a" stroke="#26243a"></path><path d="M96 495L144 540L144 495Z" fill="#28263d" stroke="#28263d"></path><path d="M48 450L96 495L96 450Z" fill="#26243a" stroke="#26243a"></path><path d="M96 450L96 495L144 495Z" fill="#252338" stroke="#252338"></path><path d="M768 540L816 495L768 495Z" fill="#28263d" stroke="#28263d"></path><path d="M816 450L864 405L816 405Z" fill="#252339" stroke="#252339"></path><path d="M864 45L816 0L816 45Z" fill="#242238" stroke="#242238"></path><path d="M816 45L816 0L768 0Z" fill="#232136" stroke="#232136"></path><path d="M144 0L96 0L96 45Z" fill="#27253b" stroke="#27253b"></path><path d="M96 45L48 90L96 90Z" fill="#242238" stroke="#242238"></path><path d="M48 360L48 405L96 405Z" fill="#27253b" stroke="#27253b"></path><path d="M864 135L864 90L816 90Z" fill="#29263e" stroke="#29263e"></path><path d="M48 45L48 90L96 45Z" fill="#28253c" stroke="#28253c"></path><path d="M864 450L864 405L816 450Z" fill="#29263e" stroke="#29263e"></path><path d="M816 495L864 450L816 450Z" fill="#252339" stroke="#252339"></path><path d="M96 0L48 45L96 45Z" fill="#232136" stroke="#232136"></path><path d="M48 405L48 450L96 450Z" fill="#252339" stroke="#252339"></path><path d="M864 90L864 45L816 45Z" fill="#242237" stroke="#242237"></path><path d="M0 180L48 180L48 135Z" fill="#27253b" stroke="#27253b"></path><path d="M0 180L0 225L48 180Z" fill="#252339" stroke="#252339"></path><path d="M48 180L0 225L48 225Z" fill="#232136" stroke="#232136"></path><path d="M48 225L0 225L48 270Z" fill="#252338" stroke="#252338"></path><path d="M48 270L0 270L48 315Z" fill="#252339" stroke="#252339"></path><path d="M48 315L0 315L48 360Z" fill="#242237" stroke="#242237"></path><path d="M48 360L0 360L48 405Z" fill="#2a273f" stroke="#2a273f"></path><path d="M48 405L0 405L48 450Z" fill="#252339" stroke="#252339"></path><path d="M0 180L48 135L0 135Z" fill="#232136" stroke="#232136"></path><path d="M864 270L912 270L864 225Z" fill="#2a273f" stroke="#2a273f"></path><path d="M864 225L912 225L864 180Z" fill="#29263e" stroke="#29263e"></path><path d="M864 180L912 180L864 135Z" fill="#242238" stroke="#242238"></path><path d="M864 135L912 135L864 90Z" fill="#2a273f" stroke="#2a273f"></path><path d="M864 90L912 90L864 45Z" fill="#28253c" stroke="#28253c"></path><path d="M864 315L912 270L864 270Z" fill="#232136" stroke="#232136"></path><path d="M912 315L912 270L864 315Z" fill="#2a273f" stroke="#2a273f"></path><path d="M912 315L864 315L864 360Z" fill="#252339" stroke="#252339"></path><path d="M912 315L864 360L912 360Z" fill="#28263d" stroke="#28263d"></path><path d="M0 225L0 270L48 270Z" fill="#26243a" stroke="#26243a"></path><path d="M912 270L912 225L864 225Z" fill="#27253b" stroke="#27253b"></path><path d="M912 225L912 180L864 180Z" fill="#28263d" stroke="#28263d"></path><path d="M0 135L48 135L48 90Z" fill="#232136" stroke="#232136"></path><path d="M912 360L864 360L864 405Z" fill="#28253c" stroke="#28253c"></path><path d="M0 270L0 315L48 315Z" fill="#232136" stroke="#232136"></path><path d="M48 495L96 540L96 495Z" fill="#27253b" stroke="#27253b"></path><path d="M96 495L96 540L144 540Z" fill="#27253b" stroke="#27253b"></path><path d="M768 540L816 540L816 495Z" fill="#28263d" stroke="#28263d"></path><path d="M816 495L864 495L864 450Z" fill="#242238" stroke="#242238"></path><path d="M0 315L0 360L48 360Z" fill="#28253c" stroke="#28253c"></path><path d="M912 180L912 135L864 135Z" fill="#29263e" stroke="#29263e"></path><path d="M912 405L912 360L864 405Z" fill="#242237" stroke="#242237"></path><path d="M0 90L0 135L48 90Z" fill="#26243a" stroke="#26243a"></path><path d="M816 540L864 495L816 495Z" fill="#252338" stroke="#252338"></path><path d="M864 450L912 405L864 405Z" fill="#232136" stroke="#232136"></path><path d="M96 0L48 0L48 45Z" fill="#27253b" stroke="#27253b"></path><path d="M48 45L0 90L48 90Z" fill="#28263d" stroke="#28263d"></path><path d="M864 45L864 0L816 0Z" fill="#252339" stroke="#252339"></path><path d="M912 45L864 0L864 45Z" fill="#28253c" stroke="#28253c"></path><path d="M0 450L48 495L48 450Z" fill="#2a273f" stroke="#2a273f"></path><path d="M48 450L48 495L96 495Z" fill="#242238" stroke="#242238"></path><path d="M0 360L0 405L48 405Z" fill="#28263d" stroke="#28263d"></path><path d="M912 450L912 405L864 450Z" fill="#252338" stroke="#252338"></path><path d="M0 45L0 90L48 45Z" fill="#242238" stroke="#242238"></path><path d="M912 135L912 90L864 90Z" fill="#29263e" stroke="#29263e"></path><path d="M864 495L912 450L864 450Z" fill="#252339" stroke="#252339"></path><path d="M912 90L912 45L864 45Z" fill="#2a273f" stroke="#2a273f"></path><path d="M0 405L0 450L48 450Z" fill="#2a273f" stroke="#2a273f"></path><path d="M48 0L0 45L48 45Z" fill="#26243a" stroke="#26243a"></path><path d="M816 540L864 540L864 495Z" fill="#29263e" stroke="#29263e"></path><path d="M864 495L912 495L912 450Z" fill="#2a273f" stroke="#2a273f"></path><path d="M0 495L48 540L48 495Z" fill="#242238" stroke="#242238"></path><path d="M48 495L48 540L96 540Z" fill="#27253b" stroke="#27253b"></path><path d="M912 270L960 270L912 225Z" fill="#27253b" stroke="#27253b"></path><path d="M912 225L960 225L912 180Z" fill="#28263d" stroke="#28263d"></path><path d="M912 180L960 180L912 135Z" fill="#252338" stroke="#252338"></path><path d="M912 135L960 135L912 90Z" fill="#242238" stroke="#242238"></path><path d="M912 90L960 90L912 45Z" fill="#252339" stroke="#252339"></path><path d="M912 315L960 270L912 270Z" fill="#28253c" stroke="#28253c"></path><path d="M960 315L960 270L912 315Z" fill="#232136" stroke="#232136"></path><path d="M960 315L912 315L912 360Z" fill="#26243a" stroke="#26243a"></path><path d="M960 315L912 360L960 360Z" fill="#26243a" stroke="#26243a"></path><path d="M960 270L960 225L912 225Z" fill="#232136" stroke="#232136"></path><path d="M960 225L960 180L912 180Z" fill="#252338" stroke="#252338"></path><path d="M960 360L912 360L912 405Z" fill="#28253c" stroke="#28253c"></path><path d="M960 180L960 135L912 135Z" fill="#28263d" stroke="#28263d"></path><path d="M960 405L960 360L912 405Z" fill="#26243a" stroke="#26243a"></path><path d="M48 0L0 0L0 45Z" fill="#26243a" stroke="#26243a"></path><path d="M864 540L912 495L864 495Z" fill="#242238" stroke="#242238"></path><path d="M912 450L960 405L912 405Z" fill="#252339" stroke="#252339"></path><path d="M0 450L0 495L48 495Z" fill="#26243a" stroke="#26243a"></path><path d="M960 45L912 0L912 45Z" fill="#2a273f" stroke="#2a273f"></path><path d="M912 45L912 0L864 0Z" fill="#252338" stroke="#252338"></path><path d="M960 450L960 405L912 450Z" fill="#28253c" stroke="#28253c"></path><path d="M960 135L960 90L912 90Z" fill="#26243a" stroke="#26243a"></path><path d="M0 495L0 540L48 540Z" fill="#242238" stroke="#242238"></path><path d="M864 540L912 540L912 495Z" fill="#29263e" stroke="#29263e"></path><path d="M912 495L960 450L912 450Z" fill="#27253b" stroke="#27253b"></path><path d="M960 495L960 450L912 495Z" fill="#26243a" stroke="#26243a"></path><path d="M960 90L960 45L912 45Z" fill="#252339" stroke="#252339"></path><path d="M912 540L960 495L912 495Z" fill="#28263d" stroke="#28263d"></path><path d="M960 45L960 0L912 0Z" fill="#29263e" stroke="#29263e"></path><path d="M912 540L960 540L960 495Z" fill="#232136" stroke="#232136"></path></g></svg>